<!-- <svg version="1.1" xmlns="http://www.w3.org/2000/svg" width="64" height="64" viewBox="0 0 64 64">
<title>loop2</title>
<path fill="#fff" d="M55.605 10.395c-5.851-6.388-14.26-10.395-23.605-10.395-17.673 0-32 14.327-32 32h6c0-14.359 11.641-26 26-26 7.689 0 14.596 3.339 19.356 8.644l-9.356 9.356h22v-22l-8.395 8.395z"></path>
<path fill="#fff" d="M58 32c0 14.359-11.641 26-26 26-7.689 0-14.596-3.339-19.356-8.644l9.356-9.356h-22v22l8.395-8.395c5.851 6.389 14.26 10.395 23.605 10.395 17.673 0 32-14.327 32-32h-6z"></path>
</svg> -->

<svg version="1.1" viewBox="0 0 24 24" xmlns="http://www.w3.org/2000/svg"><title/>
<path fill="#fff" d="M21.91,4.09a1,1,0,0,0-1.07.16L19.48,5.46A9.81,9.81,0,0,0,12,2a10,10,0,1,0,9.42,13.33,1,1,0,0,0-1.89-.66A8,8,0,1,1,12,4a7.86,7.86,0,0,1,6,2.78L16.34,8.25a1,1,0,0,0-.27,1.11A1,1,0,0,0,17,10h4.5a1,1,0,0,0,1-1V5A1,1,0,0,0,21.91,4.09Z"></path>
</svg>